#!OML:ASF E:\Steps\Project 1\Capture day 1\Session 2\Subject.ASF
:FULLY-SPECIFIED
:DEGREES
251
root -1.33552 16.2561 21.1857 -154.441 -0.822023 179.588
lowerback -29.0866 -1.93919 -6.79816
upperback -1.45721 -0.994288 0.0675821
thorax 13.8147 -1.14836 3.32107
lowerneck -1.40636 -5.39216 -0.732459
upperneck 13.322 -7.22584 5.15656
head 4.43504 -3.05025 1.40558
rclavicle 9.93923e-016 2.78299e-015
rhumerus -38.4906 -18.9018 -77.7661
rradius 31.4347
rwrist -1.13608
rhand -8.47123 -54.1668
rfingers 7.12502
rthumb -162.545 -263.403
lclavicle 9.93923e-016 2.78299e-015
lhumerus -28.9608 6.52815 81.3001
lradius 20.0772
lwrist -5.40745
lhand -21.7033 -12.6054
lfingers 7.12502
lthumb 4.69525 17.3226
rfemur -24.3464 7.19195 19.8199
rtibia 9.21162
rfoot -18.8513 -2.92079
rtoes -20.6297
lfemur -23.0528 -7.06127 -21.3462
ltibia 7.29785
lfoot -7.14043 0.0474086
ltoes -23.8468
252
root -1.33015 16.2552 21.1869 -154.423 -0.802005 179.701
lowerback -29.0771 -1.94115 -6.80456
upperback -1.43235 -0.996084 0.11967
thorax 13.8412 -1.14999 3.38117
lowerneck -1.35342 -5.41285 -0.773975
upperneck 13.329 -7.25745 5.25357
head 4.4343 -3.0611 1.44183
rclavicle -5.56597e-015 -5.56597e-015
rhumerus -38.4624 -18.857 -77.827
rradius 31.3804
rwrist -1.59729
rhand -7.30329 -56.0672
rfingers 7.12502
rthumb -161.421 -265.2
lclavicle -5.56597e-015 -5.56597e-015
lhumerus -28.9457 6.2285 81.4139
lradius 20.1777
lwrist -5.02192
lhand -21.8188 -12.6751
lfingers 7.12502
lthumb 4.58375 17.2553
rfemur -24.3796 7.61038 19.8825
rtibia 9.16242
rfoot -18.79 -3.35714
rtoes -20.9172
lfemur -23.1281 -7.09188 -21.1312
ltibia 7.32041
lfoot -7.2324 0.14579
ltoes -23.3944
253
root -1.33325 16.2559 21.191 -154.408 -0.734771 179.652
lowerback -29.0537 -1.93953 -6.89695
upperback -1.39852 -0.956663 0.105902
thorax 13.8652 -1.13688 3.43228
lowerneck -1.29859 -5.33273 -0.790478
upperneck 13.3606 -7.14878 5.32752
head 4.43433 -3.00107 1.47368
rclavicle 9.54166e-015 -3.57812e-015
rhumerus -38.4782 -18.795 -77.8635
rradius 31.4642
rwrist -1.88577
rhand -6.8968 -57.0192
rfingers 7.12502
rthumb -161.03 -266.114
lclavicle 9.54166e-015 -3.57812e-015
lhumerus -28.9351 6.00949 81.5184
lradius 20.2375
lwrist -4.75861
lhand -21.9882 -12.8463
lfingers 7.12502
lthumb 4.4202 17.0876
rfemur -24.4146 7.75692 19.7488
rtibia 9.10525
rfoot -18.7195 -3.42608
rtoes -20.7584
lfemur -23.1541 -7.10263 -21.2121
ltibia 7.29151
lfoot -7.30535 0.218745
ltoes -23.3536
254
root -1.3351 16.255 21.1956 -154.394 -0.612744 179.677
lowerback -29.044 -1.89443 -6.93494
upperback -1.34022 -0.872879 0.0964029
thorax 13.9192 -1.10059 3.47594
lowerneck -1.39957 -5.33775 -0.686482
upperneck 13.4568 -7.15485 5.24103
head 4.4742 -2.99853 1.42686
rclavicle -1.09332e-015 2.38542e-014
rhumerus -38.4296 -18.8011 -77.8982
rradius 31.5472
rwrist -2.05195
rhand -6.94449 -56.9853
rfingers 7.12502
rthumb -161.076 -266.085
lclavicle -1.09332e-015 2.38542e-014
lhumerus -28.8892 5.73573 81.6244
lradius 20.3511
lwrist -4.50355
lhand -22.1719 -12.9862
lfingers 7.12502
lthumb 4.24278 16.9513
rfemur -24.4975 7.7924 19.7236
rtibia 9.15985
rfoot -18.7059 -3.31425
rtoes -21.0646
lfemur -23.183 -6.9572 -21.2318
ltibia 7.27285
lfoot -7.2304 0.251676
ltoes -23.5375
255
root -1.33411 16.2622 21.1996 -154.619 -0.63734 179.734
lowerback -28.7103 -1.85726 -6.93348
upperback -1.29274 -0.825982 0.0757848
thorax 13.8163 -1.06877 3.47908
lowerneck -1.36855 -4.39841 -0.630273
upperneck 13.3928 -7.46133 5.43281
head 4.46543 -3.75092 1.41562
rclavicle 1.88845e-015 3.18055e-015
rhumerus -38.4627 -18.9592 -77.902
rradius 31.5324
rwrist -2.18688
rhand -7.15732 -56.2982
rfingers 7.12502
rthumb -161.28 -265.417
lclavicle 1.88845e-015 3.18055e-015
lhumerus -28.9189 5.55488 81.5926
lradius 20.5081
lwrist -4.6485
lhand -22.0257 -12.763
lfingers 7.12502
lthumb 4.38395 17.1716
rfemur -24.2368 7.98972 19.7383
rtibia 9.13374
rfoot -18.7708 -3.46114
rtoes -20.8141
lfemur -22.9878 -6.85093 -21.1707
ltibia 7.28745
lfoot -7.1406 0.129738
ltoes -23.2487
256
root -1.32867 16.2597 21.1986 -154.667 -0.525068 179.873
lowerback -28.665 -1.8024 -6.92643
upperback -1.26761 -0.756794 0.106133
thorax 13.8181 -1.03619 3.53638
lowerneck -1.20245 -4.42248 -0.661539
upperneck 13.2878 -7.49931 5.52564
head 4.41131 -3.773 1.45325
rclavicle -2.68359e-015 3.45885e-014
rhumerus -38.472 -18.9449 -77.9382
rradius 31.5157
rwrist -2.26463
rhand -7.31237 -55.7331
rfingers 7.12502
rthumb -161.43 -264.867
lclavicle -2.68359e-015 3.45885e-014
lhumerus -28.9565 5.56589 81.5375
lradius 20.5942
lwrist -4.90673
lhand -21.8799 -12.5516
lfingers 7.12502
lthumb 4.52478 17.38
rfemur -24.218 8.41105 19.7645
rtibia 9.13761
rfoot -18.8031 -3.61403
rtoes -20.2295
lfemur -22.9533 -6.77391 -20.9581
ltibia 7.2643
lfoot -7.2284 0.222266
ltoes -23.9952
257
root -1.33305 16.261 21.2015 -154.665 -0.438786 179.679
lowerback -28.6214 -1.86129 -7.13223
upperback -1.22453 -0.758036 0.0703923
thorax 13.8467 -1.04811 3.60949
lowerneck -1.39061 -4.31484 -0.771118
upperneck 13.6435 -7.40294 5.56595
head 4.55331 -3.72658 1.47707
rclavicle 7.85199e-015 -1.03368e-014
rhumerus -38.4156 -18.8125 -78.0129
rradius 31.5771
rwrist -2.20938
rhand -7.17017 -55.886
rfingers 7.12502
rthumb -161.293 -265.006
lclavicle 7.85199e-015 -1.03368e-014
lhumerus -28.9601 5.6189 81.5304
lradius 20.6507
lwrist -4.93575
lhand -21.9235 -12.6586
lfingers 7.12502
lthumb 4.48268 17.2739
rfemur -24.2234 8.24122 19.5342
rtibia 9.09087
rfoot -18.737 -3.54703
rtoes -20.5926
lfemur -22.9273 -6.93809 -21.1912
ltibia 7.21894
lfoot -7.37571 0.324667
ltoes -24.4614
258
root -1.33678 16.2612 21.2029 -154.634 -0.354945 179.619
lowerback -28.618 -1.89524 -7.23651
upperback -1.20141 -0.767144 0.0864908
thorax 13.8731 -1.05934 3.68021
lowerneck -1.84965 -5.24068 -0.760015
upperneck 14.5342 -7.00393 5.18875
head 4.87595 -2.8682 1.41216
rclavicle -1.98785e-016 8.34896e-015
rhumerus -38.471 -18.6556 -78.0679
rradius 31.8208
rwrist -2.19357
rhand -6.93125 -56.8803
rfingers 7.12502
rthumb -161.063 -265.978
lclavicle -1.98785e-016 8.34896e-015
lhumerus -29.0046 5.72586 81.5218
lradius 20.6888
lwrist -4.92508
lhand -22.0319 -13.2294
lfingers 7.12502
lthumb 4.37795 16.7054
rfemur -24.2785 8.11638 19.4703
rtibia 9.06983
rfoot -18.6625 -3.47845
rtoes -20.9844
lfemur -22.9267 -7.12708 -21.2459
ltibia 7.17818
lfoot -7.41407 0.490318
ltoes -23.3925
259
root -1.34275 16.2611 21.2107 -154.634 -0.344301 179.826
lowerback -28.4926 -1.83669 -7.02203
upperback -1.19864 -0.770979 0.149777
thorax 13.8215 -1.04475 3.6348
lowerneck -1.96266 -5.21958 -0.769082
upperneck 14.6485 -6.97272 5.13048
head 4.92748 -2.85163 1.39365
rclavicle -2.18663e-015 9.14409e-015
rhumerus -38.5657 -18.4148 -78.1502
rradius 32.1281
rwrist -2.45239
rhand -7.00635 -57.4551
rfingers 7.12502
rthumb -161.135 -266.56
lclavicle -2.18663e-015 9.14409e-015
lhumerus -28.9717 6.02831 81.4693
lradius 20.6639
lwrist -5.25574
lhand -22.0654 -13.5035
lfingers 7.12502
lthumb 4.34566 16.432
rfemur -24.3528 8.14229 19.6865
rtibia 9.12974
rfoot -18.6814 -3.33769
rtoes -20.5869
lfemur -23.0115 -7.0939 -21.0211
ltibia 7.28518
lfoot -7.29637 0.556073
ltoes -22.9406
260
root -1.36288 16.267 21.2263 -154.49 -0.347253 179.634
lowerback -28.4027 -1.82958 -6.97309
upperback -1.21851 -0.772311 0.0346394
thorax 13.754 -1.03767 3.48379
lowerneck -1.53344 -5.26402 -0.863126
upperneck 13.9478 -7.0523 5.3699
head 4.65407 -2.92132 1.49325
rclavicle -5.56597e-015 -1.59028e-015
rhumerus -38.6253 -18.1949 -78.2682
rradius 32.3164
rwrist -2.81439
rhand -7.92264 -55.8193
rfingers 7.12502
rthumb -162.017 -265.008
lclavicle -5.56597e-015 -1.59028e-015
lhumerus -28.8848 6.25545 81.4052
lradius 20.7171
lwrist -5.74003
lhand -22.0581 -13.0133
lfingers 7.12502
lthumb 4.35267 16.922
rfemur -24.6156 7.60813 19.494
rtibia 9.2705
rfoot -18.7505 -2.93563
rtoes -20.659
lfemur -23.2859 -7.1414 -21.3737
ltibia 7.48125
lfoot -7.26972 0.467034
ltoes -24.0589
261
root -1.36344 16.2659 21.229 -154.541 -0.376228 179.772
lowerback -28.2813 -1.81541 -6.84979
upperback -1.16448 -0.79031 0.0622932
thorax 13.7637 -1.03462 3.44377
lowerneck -1.33859 -5.30987 -0.966926
upperneck 13.7362 -7.12007 5.51364
head 4.56752 -2.96371 1.55708
rclavicle 5.26779e-015 -2.78299e-015
rhumerus -38.6928 -18.1234 -78.3133
rradius 32.5563
rwrist -2.32686
rhand -9.2138 -53.193
rfingers 7.12502
rthumb -163.259 -262.491
lclavicle 5.26779e-015 -2.78299e-015
lhumerus -28.9179 6.11108 81.4342
lradius 20.927
lwrist -5.66175
lhand -22.2808 -12.7327
lfingers 7.12502
lthumb 4.13762 17.2069
rfemur -24.5806 7.573 19.6794
rtibia 9.29785
rfoot -18.7391 -2.90305
rtoes -21.1164
lfemur -23.2727 -7.2023 -21.1713
ltibia 7.5412
lfoot -7.40244 0.587516
ltoes -24.5483
262
root -1.36534 16.2681 21.2311 -154.478 -0.283256 179.585
lowerback -28.2562 -1.87451 -7.09382
upperback -1.15701 -0.786508 0.0211943
thorax 13.7587 -1.04741 3.53285
lowerneck -1.66305 -5.2744 -1.00668
upperneck 14.282 -7.06319 5.41935
head 4.78546 -2.91287 1.52578
rclavicle 5.56597e-015 5.1684e-015
rhumerus -38.6758 -17.8427 -78.5002
rradius 32.5561
rwrist -2.68163
rhand -8.76436 -54.5362
rfingers 7.12502
rthumb -162.827 -263.797
lclavicle 5.56597e-015 5.1684e-015
lhumerus -29.0415 5.81515 81.5189
lradius 21.1879
lwrist -5.36386
lhand -22.4729 -12.8514
lfingers 7.12502
lthumb 3.9521 17.0917
rfemur -24.6732 7.2229 19.4761
rtibia 9.33045
rfoot -18.7169 -2.51696
rtoes -20.9548
lfemur -23.3654 -7.19367 -21.4234
ltibia 7.60647
lfoot -7.50526 0.558167
ltoes -24.0708
263
root -1.36675 16.2688 21.2381 -154.485 -0.265462 179.646
lowerback -28.0881 -1.86184 -7.08054
upperback -1.16678 -0.78538 0.0361618
thorax 13.67 -1.04159 3.546
lowerneck -1.91963 -5.21047 -0.97213
upperneck 14.6929 -6.96915 5.329
head 4.94756 -2.84671 1.48867
rclavicle -4.96962e-016 -2.0276e-014
rhumerus -38.688 -17.7742 -78.5123
rradius 32.7023
rwrist -2.24981
rhand -9.1107 -53.5563
rfingers 7.12502
rthumb -163.16 -262.846
lclavicle -4.96962e-016 -2.0276e-014
lhumerus -29.1293 5.64221 81.5309
lradius 21.383
lwrist -5.46643
lhand -22.7978 -13.1592
lfingers 7.12502
lthumb 3.63833 16.7895
rfemur -24.6945 7.15679 19.535
rtibia 9.28443
rfoot -18.658 -2.30075
rtoes -20.1923
lfemur -23.4452 -7.08189 -21.3649
ltibia 7.69847
lfoot -7.5909 0.501722
ltoes -24.0999
264
root -1.36579 16.2692 21.2443 -154.355 -0.148231 179.655
lowerback -28.0939 -1.87843 -7.19842
upperback -1.19182 -0.778129 0.0592758
thorax 13.6432 -1.04679 3.63717
lowerneck -1.90342 -5.17025 -0.927855
upperneck 14.7882 -6.90984 5.31975
head 4.97031 -2.80934 1.48202
rclavicle -5.56597e-015 -1.19271e-014
rhumerus -38.7891 -17.7136 -78.5451
rradius 32.8761
rwrist -2.39636
rhand -7.50454 -56.2443
rfingers 7.12502
rthumb -161.614 -265.395
lclavicle -5.56597e-015 -1.19271e-014
lhumerus -29.1609 5.82288 81.4018
lradius 21.5081
lwrist -5.83887
lhand -22.9995 -13.4661
lfingers 7.12502
lthumb 3.44361 16.4859
rfemur -24.8988 7.51264 19.4033
rtibia 9.27765
rfoot -18.5992 -2.49683
rtoes -19.5721
lfemur -23.675 -7.04674 -21.33
ltibia 7.7961
lfoot -7.69018 0.580931
ltoes -24.009
265
root -1.36544 16.2705 21.2477 -154.233 0.000874248 179.618
lowerback -28.1334 -1.9155 -7.38443
upperback -1.21562 -0.776394 0.0974967
thorax 13.6342 -1.06012 3.77875
lowerneck -1.784 -5.14773 -0.918239
upperneck 14.8457 -6.86259 5.26352
head 4.96392 -2.78549 1.46869
rclavicle 9.83984e-015 -1.74931e-014
rhumerus -38.9043 -17.546 -78.5725
rradius 32.957
rwrist -2.84755
rhand -8.09809 -55.4757
rfingers 7.12502
rthumb -162.186 -264.68
lclavicle 9.83984e-015 -1.74931e-014
lhumerus -29.1913 6.05933 81.3233
lradius 21.5859
lwrist -5.67934
lhand -22.4631 -13.3618
lfingers 7.12502
lthumb 3.96156 16.5811
rfemur -25.1058 7.84677 19.2213
rtibia 9.35873
rfoot -18.5983 -2.82411
rtoes -19.8512
lfemur -23.8563 -7.08856 -21.3382
ltibia 7.82095
lfoot -7.69057 0.760717
ltoes -23.7531
